<svg xmlns="http://www.w3.org/2000/svg" version="1.1" xmlns:xlink="http://www.w3.org/1999/xlink" xmlns:svgjs="http://svgjs.dev/svgjs" width="128" height="128" viewBox="0 0 128 128"><g transform="matrix(0.8046875,0,0,0.8046875,12.760752631578946,12.760752631578946)"><svg viewBox="0 0 95 95" data-background-color="#ffffff" preserveAspectRatio="xMidYMid meet" height="128" width="128" xmlns="http://www.w3.org/2000/svg" xmlns:xlink="http://www.w3.org/1999/xlink"><g id="tight-bounds" transform="matrix(1,0,0,1,-0.24049999999999727,-0.24049999999999727)"><svg viewBox="0 0 95.481 95.481" height="95.481" width="95.481"><g><svg viewBox="0 0 95.481 95.481" height="95.481" width="95.481"><g><svg viewBox="0 0 95.481 95.481" height="95.481" width="95.481"><g id="textblocktransform"><svg viewBox="0 0 95.481 95.481" height="95.481" width="95.481" id="textblock"><g><svg viewBox="0 0 95.481 95.481" height="95.481" width="95.481"><g><svg viewBox="0 0 95.481 95.481" height="95.481" width="95.481"><g><svg xmlns="http://www.w3.org/2000/svg" xmlns:xlink="http://www.w3.org/1999/xlink" version="1.1" x="0" y="0" viewBox="5 5 90 90" enable-background="new 0 0 100 100" xml:space="preserve" height="95.481" width="95.481" class="icon-icon-0" data-fill-palette-color="accent" id="icon-0"><path d="M56.586 71.031c0 0.395-0.194 0.741-0.493 0.954-0.008 0.006-0.016 0.012-0.022 0.017-0.11 0.08-0.236 0.143-0.374 0.182l-3.491 1.175h1.611c0.296 0 0.568 0.154 0.72 0.408 0.15 0.255 0.155 0.569 0.016 0.829-0.915 1.672-2.663 2.711-4.564 2.711-1.903 0-3.651-1.039-4.564-2.711-0.128-0.235-0.134-0.516-0.023-0.757 0.09-0.356 0.356-0.66 0.757-0.777l2.555-0.858h-4.154c-0.646 0-1.171-0.525-1.171-1.172 0-0.295 0.11-0.566 0.291-0.771 0.149-0.202 0.369-0.362 0.634-0.44l3.696-1.115h-3.45c-0.646 0-1.171-0.524-1.171-1.171 0-0.647 0.525-1.172 1.171-1.172h10.857c0.508 0 0.94 0.324 1.103 0.777 0.021 0.045 0.04 0.092 0.054 0.141 0.172 0.586-0.191 1.21-0.812 1.391l-3.938 1.192h3.595C56.062 69.86 56.586 70.386 56.586 71.031L56.586 71.031z" fill="#ffffff" data-fill-palette-color="accent"></path><path d="M50 17.591l1.8 8.721 3.582-8.152-0.052 8.902 5.19-7.228-1.901 8.694 6.585-5.995-3.666 8.113 7.683-4.491-5.269 7.167 8.448-2.796-6.648 5.919 8.846-0.976-7.729 4.406 8.857 0.88-8.48 2.706 8.48 2.7-8.857 0.885 7.729 4.405-8.846-0.98 6.648 5.92-8.448-2.797 5.269 7.178-6.724-3.933 6.886 12.698-9.023-8.948 6.126 17.814L56.83 63.116c0.136-0.247 0.211-0.517 0.211-0.79 0-2.815 0.876-4.772 2.013-6.573 2.08-3.304 5.034-6.085 5.034-12.678 0-7.78-6.309-14.087-14.088-14.087-7.781 0-14.087 6.307-14.087 14.087 0 10.184 7.041 11.271 7.041 19.251 0 0.243 0.065 0.484 0.176 0.71l-9.611 14.987 6.024-17.302-7.644 7.619 5.97-11.717-7.091 4.148 5.271-7.177-8.45 2.797 6.649-5.916-8.852 0.977 7.734-4.406-8.856-0.88 8.479-2.706-8.479-2.706 8.854-0.879-7.734-4.406 8.852 0.976-6.649-5.919 8.45 2.796-5.271-7.171 7.685 4.496-3.666-8.112 6.583 5.99-1.901-8.696 5.19 7.232-0.045-8.902 3.576 8.152L50 17.591M74.598 35.47h0.005M50 7.697l-1.959 9.489-0.532 2.574-1.055-2.405-3.88-8.845 0.049 9.659 0.013 2.63-1.533-2.137-5.647-7.87 2.068 9.463 0.562 2.568-1.944-1.769-7.148-6.503 3.979 8.807 1.082 2.393-2.268-1.327-8.352-4.887 5.73 7.797 1.557 2.118-2.496-0.826-9.181-3.038 7.223 6.43 1.967 1.751-2.62-0.289-9.608-1.059 8.398 4.785 2.28 1.299-2.607 0.259-9.623 0.956 9.213 2.94 2.508 0.8-2.508 0.8-9.211 2.939 9.621 0.957 2.609 0.259-2.28 1.298-8.402 4.786 9.611-1.06 2.616-0.289-1.962 1.746-7.232 6.435 9.19-3.042 2.499-0.827-1.56 2.125-5.722 7.792 8.344-4.882 1.201-0.703-2.872 5.637-5.702 11.191 8.896-8.866 1.482-1.479-3.164 9.087-5.568 15.99 9.14-14.253 9.611-14.987 0.14-1.903c-0.031-4.308-1.824-6.88-3.558-9.368-1.791-2.569-3.482-4.996-3.482-9.77 0-6.665 5.422-12.087 12.087-12.087 6.665 0 12.088 5.422 12.088 12.087 0 4.773-1.692 7.2-3.483 9.768-0.414 0.594-0.842 1.208-1.243 1.845-1.135 1.798-2.296 4.099-2.32 7.531l0.098 1.966 9.655 15.289 9.163 14.508-5.58-16.227-3.339-9.707 2.937 2.911 9.634 9.554-6.468-11.927-3.472-6.403 0.542 0.317 8.337 4.876-5.715-7.786-1.561-2.126 2.499 0.827 9.183 3.04-7.224-6.433-1.962-1.747 2.608 0.29 9.618 1.065-8.407-4.791-2.283-1.301 2.62-0.262 9.622-0.962-9.215-2.934-2.501-0.796 2.502-0.798 9.213-2.939-9.622-0.957-2.614-0.26 2.278-1.299 8.394-4.784-9.604 1.059-2.613 0.288 1.966-1.75 7.223-6.431-9.181 3.038-2.493 0.825 1.553-2.112 5.728-7.791-8.349 4.88-2.268 1.326 1.083-2.397 3.982-8.813-7.151 6.51-1.943 1.77 0.561-2.563 2.067-9.456-5.646 7.862-1.53 2.129 0.016-2.625 0.056-9.663-3.887 8.846-1.06 2.412-0.532-2.58L50 7.697 50 7.697z" fill="#ffffff" data-fill-palette-color="accent"></path></svg></g></svg></g></svg></g></svg></g></svg></g></svg></g><defs></defs></svg><rect width="95.481" height="95.481" fill="none" stroke="none" visibility="hidden"></rect></g></svg></g></svg>