<svg xmlns="http://www.w3.org/2000/svg" version="1.1" xmlns:xlink="http://www.w3.org/1999/xlink" xmlns:svgjs="http://svgjs.dev/svgjs" width="2000" height="510" viewBox="0 0 2000 510"><g transform="matrix(1,0,0,1,-1.2121212121212466,-0.013155031126842687)"><svg viewBox="0 0 396 101" data-background-color="#ffffff" preserveAspectRatio="xMidYMid meet" height="510" width="2000" xmlns="http://www.w3.org/2000/svg" xmlns:xlink="http://www.w3.org/1999/xlink"><g id="tight-bounds" transform="matrix(1,0,0,1,0.2400000000000091,0.002605212046688621)"><svg viewBox="0 0 395.52 100.99478957590664" height="100.99478957590664" width="395.52"><g><svg viewBox="0 0 656.703235093509 167.6871082172484" height="100.99478957590664" width="395.52"><g><rect width="10.942255044954516" height="121.94322992643605" x="196.33175493178902" y="22.87193914540618" fill="#ffffff" opacity="1" stroke-width="0" stroke="transparent" fill-opacity="1" class="rect-qz-0" data-fill-palette-color="primary" rx="1%" id="qz-0" data-palette-color="#000000"></rect></g><g><rect width="10.942255044954516" height="121.94322992643605" x="221.59633333401385" y="22.87193914540618" fill="#ffffff" opacity="1" stroke-width="0" stroke="transparent" fill-opacity="1" class="rect-qz-1" data-fill-palette-color="primary" rx="1%" id="qz-1" data-palette-color="#000000"></rect></g><g transform="matrix(1,0,0,1,261.183235093509,23.175280513382383)"><svg viewBox="0 0 395.52 121.33654719048364" height="121.33654719048364" width="395.52"><g id="textblocktransform"><svg viewBox="0 0 395.52 121.33654719048364" height="121.33654719048364" width="395.52" id="textblock"><g><svg viewBox="0 0 395.52 121.33654719048364" height="121.33654719048364" width="395.52"><g transform="matrix(1,0,0,1,0,0)"><svg width="395.52" viewBox="0.85 -31.57 155.97 47.85" height="121.33654719048364" data-palette-color="#000000"><path d="M7.45-1.51L16.94-1.51Q18.92-1.51 19.31-4.49L19.31-4.49 20.29-4.49 20.29 0 0.85 0 0.85-1.03 2.27-1.32Q3.59-1.59 3.88-2.39 4.17-3.2 4.17-5.13L4.17-5.13 4.17-23.93Q4.17-26.15 3.81-26.82 3.44-27.49 2.29-27.73L2.29-27.73 0.85-28.03 0.85-29.05 18.87-29.05 18.87-24.56 17.9-24.56Q17.48-27.49 15.53-27.54L15.53-27.54 7.45-27.54 7.45-15.11 13.09-15.11Q14.01-15.11 14.2-15.41 14.38-15.7 14.6-16.63L14.6-16.63 14.84-17.7 15.87-17.7 15.87-11.06 14.84-11.06Q14.45-13.06 14.12-13.33 13.79-13.6 13.06-13.6L13.06-13.6 7.45-13.6 7.45-1.51ZM36.2-17.9L36.2-17.9Q32.71-17.9 30.08-16.04L30.08-16.04 30.08-5.1Q30.08-2.86 30.39-2.19 30.71-1.51 31.88-1.27L31.88-1.27 33.32-1 33.32 0 24.07 0 24.07-1.03 25.75-1.39Q26.66-1.59 26.88-1.95L26.88-1.95Q27.07-2.37 27.07-3.74L27.07-3.74 27.07-14.72Q27.07-16.48 26.76-16.94L26.76-16.94Q26.17-17.6 24.19-17.63L24.19-17.63 24.07-18.46 30.08-19.97 30.08-17.82Q34.23-20.09 37.18-20.09L37.18-20.09Q40.89-20.09 42.19-16.77L42.19-16.77Q42.82-15.16 42.82-12.84L42.82-12.84 42.82-5.05Q42.82-2.81 43.15-2.14 43.48-1.46 44.6-1.25L44.6-1.25 46.04-0.95 46.04 0 36.81 0 36.81-1 38.47-1.34Q39.4-1.54 39.6-1.93L39.6-1.93Q39.79-2.34 39.79-3.71L39.79-3.71 39.79-12.06Q39.74-17.85 36.2-17.9ZM49.21-18.46L55.22-19.97 55.22-5.1Q55.22-2.86 55.54-2.19 55.85-1.51 57.03-1.27L57.03-1.27 58.47-1 58.47 0 49.21 0 49.21-1.03 50.9-1.39Q51.8-1.59 52.02-1.95L52.02-1.95Q52.22-2.37 52.22-3.74L52.22-3.74 52.22-14.72Q52.22-16.41 52.07-16.77L52.07-16.77Q51.73-17.63 49.34-17.63L49.34-17.63 49.21-18.46ZM51.04-29.52L51.04-29.52Q51.04-30.37 51.62-30.97 52.19-31.57 53.05-31.57L53.05-31.57Q53.88-31.57 54.47-30.97 55.07-30.37 55.07-29.52L55.07-29.52Q55.07-28.69 54.47-28.11 53.88-27.54 53.05-27.54L53.05-27.54Q52.19-27.54 51.62-28.11 51.04-28.69 51.04-29.52ZM81.83-19.51L81.83-17.87 77.8-17.87Q78.02-17.14 78.15-15.28 78.29-13.43 78.29-13.01L78.29-13.01Q78.29-8.2 74.09-6.37L74.09-6.37Q71.57-5.27 69.13-5.54L69.13-5.54Q67.2-4 66.83-3.34 66.45-2.69 66.45-1.98L66.45-1.98Q66.45-0.37 70.21-0.12L70.21-0.12Q71.14-0.07 74.49-0.07 77.85-0.07 79.85 1.61 81.85 3.3 81.85 5.88L81.85 5.88Q81.85 9.84 78.7 13.06 75.55 16.28 69.84 16.28L69.84 16.28Q67.47 16.28 65.23 14.97L65.23 14.97Q62.1 13.06 62.08 9.99L62.08 9.99Q62.08 5.98 66.37 2.91L66.37 2.91 67.42 2.2Q64.71 1.37 63.79 0.59L63.79 0.59Q62.81-0.27 62.81-1.25L62.81-1.25Q62.83-2.69 64.93-4.39L64.93-4.39Q65.86-5.13 67.11-6.01L67.11-6.01Q66.03-6.64 64.59-8.3 63.15-9.96 63.15-12.26L63.15-12.26Q63.15-16.38 65.46-18.24 67.77-20.09 70.65-20.09L70.65-20.09Q73.09-20.04 74.97-19.78 76.85-19.51 77.63-19.51L77.63-19.51 81.83-19.51ZM67.72 13.62L67.72 13.62Q69.04 14.31 70.35 14.33L70.35 14.33Q74.41 14.33 76.58 12.15 78.75 9.96 78.83 7.57L78.83 7.57Q78.78 2.66 73.14 2.64L73.14 2.64Q71.04 2.64 70.37 2.71 69.69 2.78 68.5 3.15L68.5 3.15Q65.23 6.42 65.23 9.16L65.23 9.16Q65.23 12.28 67.72 13.62ZM70.67-18.63L70.67-18.63Q66.15-18.58 66.13-12.33L66.13-12.33Q66.13-10.13 67.23-8.58 68.33-7.03 70.43-7.01L70.43-7.01Q73.87-7.01 74.87-10.67L74.87-10.67Q75.19-11.89 75.21-13.28L75.21-13.28Q75.21-16.31 73.5-17.72L73.5-17.72Q72.36-18.63 70.67-18.63ZM96.06-17.9L96.06-17.9Q92.57-17.9 89.93-16.04L89.93-16.04 89.93-5.1Q89.93-2.86 90.25-2.19 90.57-1.51 91.74-1.27L91.74-1.27 93.18-1 93.18 0 83.93 0 83.93-1.03 85.61-1.39Q86.51-1.59 86.73-1.95L86.73-1.95Q86.93-2.37 86.93-3.74L86.93-3.74 86.93-14.72Q86.93-16.43 86.59-17.02L86.59-17.02Q86.22-17.63 84.05-17.63L84.05-17.63 83.93-18.46 89.93-19.97 89.93-17.82Q94.08-20.09 97.22-20.08 100.36-20.07 101.77-17.36L101.77-17.36Q106.44-20.09 109.94-20.09 113.44-20.09 114.74-16.77L114.74-16.77Q115.37-15.16 115.37-12.84L115.37-12.84 115.37-5.05Q115.37-2.81 115.7-2.14 116.03-1.46 117.15-1.25L117.15-1.25 118.59-0.95 118.59 0 109.37 0 109.37-1 111.03-1.34Q111.95-1.54 112.15-1.93L112.15-1.93Q112.34-2.34 112.34-3.71L112.34-3.71 112.34-12.06Q112.29-17.85 108.75-17.9L108.75-17.9Q105.26-17.9 102.31-15.97L102.31-15.97Q102.68-14.62 102.68-12.84L102.68-12.84 102.68-5.05Q102.68-2.81 103.01-2.14 103.33-1.46 104.46-1.25L104.46-1.25 105.9-0.95 105.9 0 96.67 0 96.67-1 98.33-1.34Q99.26-1.54 99.45-1.93L99.45-1.93Q99.65-2.34 99.65-3.71L99.65-3.71 99.65-12.06Q99.6-17.85 96.06-17.9ZM127.48-29.44L127.48-29.44Q130.48-29.44 132.12-28.44L132.12-28.44Q134.39-27 135.75-23.05L135.75-23.05Q140.69-8.67 142-5.2L142-5.2Q143.37-1.59 145.35-1.2L145.35-1.2 146.45-1 146.45 0 136.39 0 136.39-1.03 138.27-1.44Q139.42-1.73 139.44-2.71L139.44-2.71Q139.44-3.3 139.1-4.3L139.1-4.3 137.29-9.72 127.4-9.72Q125.33-3.15 125.28-2.73L125.28-2.73Q125.28-1.66 126.99-1.27L126.99-1.27 128.43-1 128.43 0 119.23 0 119.23-1.03 120.59-1.27Q122.4-1.61 123.74-5.49L123.74-5.49 129.02-20.8Q130.46-25.02 130.54-25.88 130.63-26.73 129.97-26.73L129.97-26.73Q129.19-26.73 128.49-26.46 127.8-26.2 127.6-26.2L127.6-26.2Q126.43-26.2 126.01-27.27L126.01-27.27Q125.89-27.64 125.89-28.03L125.89-28.03Q126.06-29.37 127.48-29.44ZM136.83-11.23L132.41-24.76 127.92-11.23 136.83-11.23ZM147.57-18.46L153.57-19.97 153.57-5.1Q153.57-2.86 153.89-2.19 154.21-1.51 155.38-1.27L155.38-1.27 156.82-1 156.82 0 147.57 0 147.57-1.03 149.25-1.39Q150.16-1.59 150.38-1.95L150.38-1.95Q150.57-2.37 150.57-3.74L150.57-3.74 150.57-14.72Q150.57-16.41 150.42-16.77L150.42-16.77Q150.08-17.63 147.69-17.63L147.69-17.63 147.57-18.46ZM149.4-29.52L149.4-29.52Q149.4-30.37 149.97-30.97 150.55-31.57 151.4-31.57L151.4-31.57Q152.23-31.57 152.83-30.97 153.43-30.37 153.43-29.52L153.43-29.52Q153.43-28.69 152.83-28.11 152.23-27.54 151.4-27.54L151.4-27.54Q150.55-27.54 149.97-28.11 149.4-28.69 149.4-29.52Z" opacity="1" transform="matrix(1,0,0,1,0,0)" fill="#ffffff" class="wordmark-text-0" data-fill-palette-color="primary" id="text-0"></path></svg></g></svg></g></svg></g></svg></g><g><svg viewBox="0 0 167.6871082172484 167.6871082172484" height="167.6871082172484" width="167.6871082172484"><g><svg xmlns="http://www.w3.org/2000/svg" xmlns:xlink="http://www.w3.org/1999/xlink" version="1.1" x="0" y="0" viewBox="5 5 90 90" enable-background="new 0 0 100 100" xml:space="preserve" height="167.6871082172484" width="167.6871082172484" class="icon-icon-0" data-fill-palette-color="accent" id="icon-0"><path d="M56.586 71.031c0 0.395-0.194 0.741-0.493 0.954-0.008 0.006-0.016 0.012-0.022 0.017-0.11 0.08-0.236 0.143-0.374 0.182l-3.491 1.175h1.611c0.296 0 0.568 0.154 0.72 0.408 0.15 0.255 0.155 0.569 0.016 0.829-0.915 1.672-2.663 2.711-4.564 2.711-1.903 0-3.651-1.039-4.564-2.711-0.128-0.235-0.134-0.516-0.023-0.757 0.09-0.356 0.356-0.66 0.757-0.777l2.555-0.858h-4.154c-0.646 0-1.171-0.525-1.171-1.172 0-0.295 0.11-0.566 0.291-0.771 0.149-0.202 0.369-0.362 0.634-0.44l3.696-1.115h-3.45c-0.646 0-1.171-0.524-1.171-1.171 0-0.647 0.525-1.172 1.171-1.172h10.857c0.508 0 0.94 0.324 1.103 0.777 0.021 0.045 0.04 0.092 0.054 0.141 0.172 0.586-0.191 1.21-0.812 1.391l-3.938 1.192h3.595C56.062 69.86 56.586 70.386 56.586 71.031L56.586 71.031z" fill="#ffffff" data-fill-palette-color="accent"></path><path d="M50 17.591l1.8 8.721 3.582-8.152-0.052 8.902 5.19-7.228-1.901 8.694 6.585-5.995-3.666 8.113 7.683-4.491-5.269 7.167 8.448-2.796-6.648 5.919 8.846-0.976-7.729 4.406 8.857 0.88-8.48 2.706 8.48 2.7-8.857 0.885 7.729 4.405-8.846-0.98 6.648 5.92-8.448-2.797 5.269 7.178-6.724-3.933 6.886 12.698-9.023-8.948 6.126 17.814L56.83 63.116c0.136-0.247 0.211-0.517 0.211-0.79 0-2.815 0.876-4.772 2.013-6.573 2.08-3.304 5.034-6.085 5.034-12.678 0-7.78-6.309-14.087-14.088-14.087-7.781 0-14.087 6.307-14.087 14.087 0 10.184 7.041 11.271 7.041 19.251 0 0.243 0.065 0.484 0.176 0.71l-9.611 14.987 6.024-17.302-7.644 7.619 5.97-11.717-7.091 4.148 5.271-7.177-8.45 2.797 6.649-5.916-8.852 0.977 7.734-4.406-8.856-0.88 8.479-2.706-8.479-2.706 8.854-0.879-7.734-4.406 8.852 0.976-6.649-5.919 8.45 2.796-5.271-7.171 7.685 4.496-3.666-8.112 6.583 5.99-1.901-8.696 5.19 7.232-0.045-8.902 3.576 8.152L50 17.591M74.598 35.47h0.005M50 7.697l-1.959 9.489-0.532 2.574-1.055-2.405-3.88-8.845 0.049 9.659 0.013 2.63-1.533-2.137-5.647-7.87 2.068 9.463 0.562 2.568-1.944-1.769-7.148-6.503 3.979 8.807 1.082 2.393-2.268-1.327-8.352-4.887 5.73 7.797 1.557 2.118-2.496-0.826-9.181-3.038 7.223 6.43 1.967 1.751-2.62-0.289-9.608-1.059 8.398 4.785 2.28 1.299-2.607 0.259-9.623 0.956 9.213 2.94 2.508 0.8-2.508 0.8-9.211 2.939 9.621 0.957 2.609 0.259-2.28 1.298-8.402 4.786 9.611-1.06 2.616-0.289-1.962 1.746-7.232 6.435 9.19-3.042 2.499-0.827-1.56 2.125-5.722 7.792 8.344-4.882 1.201-0.703-2.872 5.637-5.702 11.191 8.896-8.866 1.482-1.479-3.164 9.087-5.568 15.99 9.14-14.253 9.611-14.987 0.14-1.903c-0.031-4.308-1.824-6.88-3.558-9.368-1.791-2.569-3.482-4.996-3.482-9.77 0-6.665 5.422-12.087 12.087-12.087 6.665 0 12.088 5.422 12.088 12.087 0 4.773-1.692 7.2-3.483 9.768-0.414 0.594-0.842 1.208-1.243 1.845-1.135 1.798-2.296 4.099-2.32 7.531l0.098 1.966 9.655 15.289 9.163 14.508-5.58-16.227-3.339-9.707 2.937 2.911 9.634 9.554-6.468-11.927-3.472-6.403 0.542 0.317 8.337 4.876-5.715-7.786-1.561-2.126 2.499 0.827 9.183 3.04-7.224-6.433-1.962-1.747 2.608 0.29 9.618 1.065-8.407-4.791-2.283-1.301 2.62-0.262 9.622-0.962-9.215-2.934-2.501-0.796 2.502-0.798 9.213-2.939-9.622-0.957-2.614-0.26 2.278-1.299 8.394-4.784-9.604 1.059-2.613 0.288 1.966-1.75 7.223-6.431-9.181 3.038-2.493 0.825 1.553-2.112 5.728-7.791-8.349 4.88-2.268 1.326 1.083-2.397 3.982-8.813-7.151 6.51-1.943 1.77 0.561-2.563 2.067-9.456-5.646 7.862-1.53 2.129 0.016-2.625 0.056-9.663-3.887 8.846-1.06 2.412-0.532-2.58L50 7.697 50 7.697z" fill="#ffffff" data-fill-palette-color="accent"></path></svg></g></svg></g></svg></g><defs></defs></svg><rect width="395.52" height="100.99478957590664" fill="none" stroke="none" visibility="hidden"></rect></g></svg></g></svg>